<?xml version="1.0" encoding="UTF-8" standalone="no"?>
<!-- Generator: Adobe Illustrator 15.1.0, SVG Export Plug-In  -->
<!DOCTYPE svg  PUBLIC '-//W3C//DTD SVG 1.1//EN'  'http://www.w3.org/Graphics/SVG/1.1/DTD/svg11.dtd' [
	<!ENTITY ns_flows "http://ns.adobe.com/Flows/1.0/">
]>
<svg style="enable-background:new 0 0 299 86" xmlns="http://www.w3.org/2000/svg" xml:space="preserve" height="300px" width="1043px" version="1.1" y="0px" x="0px" xmlns:xlink="http://www.w3.org/1999/xlink" viewBox="0 0 299 86">
<style type="text/css">
<![CDATA[
	.st0{opacity:0.3059;fill:#F58321;}
	.st1{opacity:0.3059;fill:#F7AC6C;}
	.st2{opacity:0.3059;fill:#FBCCA3;}
]]>
</style>
<path class="st0" d="m15.124 54.352c-5.59 0-10.147-4.544-10.147-10.146 0-5.59 4.558-10.125 10.147-10.125 5.588 0 10.14 4.535 10.14 10.125 0 5.602-4.552 10.146-10.14 10.146m-0.001-25.261c-8.335 0-15.123 6.787-15.123 15.118 0 8.334 6.788 15.122 15.123 15.122 8.325 0 15.121-6.788 15.121-15.122 0-8.331-6.796-15.118-15.121-15.118"/>
<path class="st0" d="m57.746 40.356c-4.104 0-7.451-3.337-7.451-7.451 0-4.104 3.348-7.435 7.451-7.435s7.445 3.331 7.445 7.435c0 4.115-3.342 7.451-7.445 7.451m-0.002-18.547c-6.119 0-11.103 4.983-11.103 11.099 0 6.121 4.983 11.105 11.103 11.105 6.113 0 11.104-4.984 11.104-11.105 0.001-6.116-4.991-11.099-11.104-11.099"/>
<path class="st0" d="m126.05 33.563c-7.425 0-13.482-6.039-13.482-13.48 0-7.427 6.058-13.454 13.482-13.454 7.426 0 13.472 6.027 13.472 13.454 0 7.44-6.04 13.48-13.47 13.48m0-33.563c-11.074 0-20.093 9.018-20.093 20.086 0 11.074 9.019 20.091 20.093 20.091 11.062 0 20.091-9.017 20.091-20.091 0-11.068-9.03-20.086-20.09-20.086"/>
<path class="st0" d="m273.13 77.416c-9.613 0-17.457-7.818-17.457-17.457 0-9.615 7.844-17.421 17.457-17.421 9.615 0 17.445 7.806 17.445 17.421-0.01 9.639-7.84 17.457-17.45 17.457m0-43.462c-14.341 0-26.019 11.678-26.019 26.011 0 14.341 11.678 26.018 26.019 26.018 14.323 0 26.018-11.677 26.018-26.018 0-14.333-11.7-26.011-26.02-26.011"/>
<path class="st0" d="m84.87 64.335c-2.389 0-4.338-1.941-4.338-4.336 0-2.39 1.949-4.329 4.338-4.329 2.39 0 4.334 1.939 4.334 4.329 0 2.395-1.944 4.336-4.334 4.336m-0.001-10.797c-3.563 0-6.464 2.9-6.464 6.462 0 3.563 2.901 6.464 6.464 6.464 3.559 0 6.466-2.9 6.466-6.464 0-3.562-2.907-6.462-6.466-6.462"/>
<path class="st0" d="m98.933 36.646c-1.896 0-3.44-1.542-3.44-3.441 0-1.894 1.545-3.433 3.44-3.433s3.438 1.539 3.438 3.433c0 1.899-1.54 3.441-3.437 3.441m0-8.566c-2.826 0-5.128 2.303-5.128 5.126 0 2.826 2.302 5.128 5.128 5.128 2.821 0 5.126-2.302 5.126-5.128 0-2.823-2.31-5.126-5.127-5.126"/>
<path class="st1" d="m42.297 43.071c-4.644 0-8.426 3.767-8.426 8.398 0 4.649 3.782 8.422 8.426 8.422 4.628 0 8.411-3.772 8.411-8.422 0-4.631-3.783-8.398-8.411-8.398"/>
<path class="st1" d="m82.19 32.079c-4.643 0-8.425 3.767-8.425 8.399 0 4.648 3.782 8.42 8.425 8.42 4.629 0 8.41-3.771 8.41-8.42 0.001-4.632-3.781-8.399-8.41-8.399"/>
<path class="st1" d="m118.14 42.896c-6.479 0-11.757 5.258-11.757 11.723 0 6.487 5.277 11.751 11.757 11.751 6.46 0 11.738-5.264 11.738-11.751 0-6.466-5.28-11.723-11.74-11.723"/>
<path class="st2" d="m38.04 30.114c-2.734 0-4.959 2.229-4.959 4.943s2.225 4.928 4.959 4.928c2.706 0 4.925-2.213 4.925-4.928s-2.219-4.943-4.925-4.943"/>
<path class="st2" d="m75.32 21.809c-2.735 0-4.959 2.229-4.959 4.942 0 2.716 2.224 4.93 4.959 4.93 2.705 0 4.923-2.214 4.923-4.93 0-2.714-2.218-4.942-4.923-4.942"/>
<path class="st2" d="m106.74 37.988c-1.725 0-3.125 1.405-3.125 3.116 0 1.71 1.4 3.106 3.125 3.106 1.703 0 3.103-1.396 3.103-3.106s-1.4-3.116-3.1-3.116"/>
<path class="st2" d="m97.363 42.729c-3.78 0-6.853 3.081-6.853 6.832s3.072 6.811 6.853 6.811c3.738 0 6.803-3.06 6.803-6.811s-3.07-6.832-6.807-6.832"/>
<path class="st2" d="m64.884 46.771c-5.787 0-10.493 4.718-10.493 10.461 0 5.746 4.706 10.43 10.493 10.43 5.723 0 10.419-4.684 10.419-10.43 0-5.743-4.697-10.461-10.419-10.461"/>
<path class="st0" d="m228.69 57.704c-5.588 0-10.139-4.534-10.139-10.124 0-5.602 4.551-10.146 10.139-10.146 5.589 0 10.147 4.545 10.147 10.146 0 5.59-4.56 10.124-10.15 10.124m0-25.248c-8.325 0-15.121 6.786-15.121 15.12 0 8.332 6.796 15.119 15.121 15.119 8.335 0 15.122-6.787 15.122-15.119 0-8.334-6.78-15.12-15.12-15.12"/>
<path class="st0" d="m186.07 66.313c-4.104 0-7.445-3.331-7.445-7.435 0-4.113 3.342-7.449 7.445-7.449s7.452 3.336 7.452 7.449c0.01 4.104-3.34 7.435-7.44 7.435m0-18.541c-6.112 0-11.104 4.984-11.104 11.104 0 6.116 4.991 11.099 11.104 11.099 6.12 0 11.104-4.982 11.104-11.099 0-6.119-4.98-11.104-11.1-11.104"/>
<path class="st0" d="m158.94 36.114c-2.391 0-4.335-1.939-4.335-4.328 0-2.394 1.944-4.337 4.335-4.337 2.388 0 4.337 1.943 4.337 4.337 0 2.389-1.95 4.328-4.34 4.328m0.01-10.793c-3.561 0-6.466 2.9-6.466 6.464 0 3.561 2.905 6.461 6.466 6.461 3.562 0 6.462-2.9 6.462-6.461 0-3.563-2.9-6.464-6.46-6.464"/>
<path class="st0" d="m144.88 62.013c-1.895 0-3.438-1.537-3.438-3.433 0-1.898 1.544-3.44 3.438-3.44 1.896 0 3.441 1.542 3.441 3.44 0 1.896-1.54 3.433-3.44 3.433m0-8.561c-2.822 0-5.126 2.301-5.126 5.126s2.304 5.127 5.126 5.127c2.826 0 5.128-2.302 5.128-5.127s-2.3-5.126-5.13-5.126"/>
<path class="st1" d="m201.52 31.895c-4.629 0-8.412 3.772-8.412 8.421 0 4.632 3.783 8.398 8.412 8.398 4.643 0 8.425-3.767 8.425-8.398 0-4.649-3.78-8.421-8.42-8.421"/>
<path class="st1" d="m161.62 42.887c-4.627 0-8.408 3.771-8.408 8.419 0 4.633 3.781 8.401 8.408 8.401 4.646 0 8.426-3.769 8.426-8.401 0-4.648-3.78-8.419-8.43-8.419"/>
<path class="st2" d="m205.77 51.799c-2.705 0-4.924 2.214-4.924 4.929s2.219 4.944 4.924 4.944c2.735 0 4.958-2.229 4.958-4.944s-2.22-4.929-4.96-4.929"/>
<path class="st2" d="m168.5 60.104c-2.704 0-4.924 2.214-4.924 4.929 0 2.714 2.22 4.942 4.924 4.942 2.734 0 4.959-2.229 4.959-4.942-0.01-2.715-2.23-4.929-4.96-4.929"/>
<path class="st2" d="m137.08 47.574c-1.704 0-3.104 1.396-3.104 3.106s1.399 3.117 3.104 3.117c1.724 0 3.125-1.406 3.125-3.117s-1.4-3.106-3.12-3.106"/>
<path class="st2" d="m146.45 35.414c-3.737 0-6.803 3.059-6.803 6.81 0 3.752 3.065 6.833 6.803 6.833 3.779 0 6.854-3.081 6.854-6.833 0-3.751-3.07-6.81-6.85-6.81"/>
<path class="st2" d="m178.93 24.122c-5.724 0-10.419 4.684-10.419 10.43 0 5.745 4.695 10.462 10.419 10.462 5.788 0 10.494-4.717 10.494-10.462 0-5.746-4.7-10.43-10.49-10.43"/>
</svg>
