<?xml version="1.0" encoding="utf-8"?>
<!-- Generator: Adobe Illustrator 15.1.0, SVG Export Plug-In  -->
<!DOCTYPE svg PUBLIC "-//W3C//DTD SVG 1.1//EN" "http://www.w3.org/Graphics/SVG/1.1/DTD/svg11.dtd" [
	<!ENTITY ns_flows "http://ns.adobe.com/Flows/1.0/">
]>
<svg version="1.1"
	 xmlns="http://www.w3.org/2000/svg" xmlns:xlink="http://www.w3.org/1999/xlink" xmlns:a="http://ns.adobe.com/AdobeSVGViewerExtensions/3.0/"
	 x="0px" y="0px" width="1043px" height="300px" viewBox="0 0 299 86" style="enable-background:new 0 0 299 86;"
	 xml:space="preserve">
<style type="text/css">
<![CDATA[
	.st0{opacity:0.3059;fill:#F58321;}
	.st1{opacity:0.3059;fill:#F7AC6C;}
	.st2{opacity:0.3059;fill:#FBCCA3;}
]]>
</style>
<defs>
</defs>
<path class="st0" d="M15.124,54.352c-5.59,0-10.147-4.544-10.147-10.146c0-5.59,4.558-10.125,10.147-10.125
	c5.588,0,10.14,4.535,10.14,10.125C25.264,49.808,20.712,54.352,15.124,54.352 M15.123,29.091C6.788,29.091,0,35.878,0,44.209
	c0,8.334,6.788,15.122,15.123,15.122c8.325,0,15.121-6.788,15.121-15.122C30.244,35.878,23.448,29.091,15.123,29.091"/>
<path class="st0" d="M57.746,40.356c-4.104,0-7.451-3.337-7.451-7.451c0-4.104,3.348-7.435,7.451-7.435
	c4.103,0,7.445,3.331,7.445,7.435C65.191,37.02,61.849,40.356,57.746,40.356 M57.744,21.809c-6.119,0-11.103,4.983-11.103,11.099
	c0,6.121,4.983,11.105,11.103,11.105c6.113,0,11.104-4.984,11.104-11.105C68.849,26.792,63.857,21.809,57.744,21.809"/>
<path class="st0" d="M126.051,33.563c-7.425,0-13.482-6.039-13.482-13.48c0-7.427,6.058-13.454,13.482-13.454
	c7.426,0,13.472,6.027,13.472,13.454C139.522,27.523,133.477,33.563,126.051,33.563 M126.05,0c-11.074,0-20.093,9.018-20.093,20.086
	c0,11.074,9.019,20.091,20.093,20.091c11.062,0,20.091-9.017,20.091-20.091C146.141,9.018,137.111,0,126.05,0"/>
<path class="st0" d="M273.129,77.416c-9.613,0-17.457-7.818-17.457-17.457c0-9.615,7.844-17.421,17.457-17.421
	c9.615,0,17.445,7.806,17.445,17.421C290.574,69.598,282.744,77.416,273.129,77.416 M273.128,33.954
	c-14.341,0-26.019,11.678-26.019,26.011c0,14.341,11.678,26.018,26.019,26.018c14.323,0,26.018-11.677,26.018-26.018
	C299.146,45.632,287.451,33.954,273.128,33.954"/>
<path class="st0" d="M84.87,64.335c-2.389,0-4.338-1.941-4.338-4.336c0-2.39,1.949-4.329,4.338-4.329
	c2.39,0,4.334,1.939,4.334,4.329C89.204,62.394,87.26,64.335,84.87,64.335 M84.869,53.538c-3.563,0-6.464,2.9-6.464,6.462
	c0,3.563,2.901,6.464,6.464,6.464c3.559,0,6.466-2.9,6.466-6.464C91.335,56.438,88.428,53.538,84.869,53.538"/>
<path class="st0" d="M98.933,36.646c-1.896,0-3.44-1.542-3.44-3.441c0-1.894,1.545-3.433,3.44-3.433s3.438,1.539,3.438,3.433
	C102.37,35.104,100.828,36.646,98.933,36.646 M98.933,28.08c-2.826,0-5.128,2.303-5.128,5.126c0,2.826,2.302,5.128,5.128,5.128
	c2.821,0,5.126-2.302,5.126-5.128C104.059,30.383,101.754,28.08,98.933,28.08"/>
<path class="st1" d="M42.297,43.071c-4.644,0-8.426,3.767-8.426,8.398c0,4.649,3.782,8.422,8.426,8.422
	c4.628,0,8.411-3.772,8.411-8.422C50.708,46.838,46.925,43.071,42.297,43.071"/>
<path class="st1" d="M82.19,32.079c-4.643,0-8.425,3.767-8.425,8.399c0,4.648,3.782,8.42,8.425,8.42c4.629,0,8.41-3.771,8.41-8.42
	C90.601,35.846,86.819,32.079,82.19,32.079"/>
<path class="st1" d="M118.142,42.896c-6.479,0-11.757,5.258-11.757,11.723c0,6.487,5.277,11.751,11.757,11.751
	c6.46,0,11.738-5.264,11.738-11.751C129.88,48.153,124.602,42.896,118.142,42.896"/>
<path class="st2" d="M38.04,30.114c-2.734,0-4.959,2.229-4.959,4.943s2.225,4.928,4.959,4.928c2.706,0,4.925-2.213,4.925-4.928
	S40.746,30.114,38.04,30.114"/>
<path class="st2" d="M75.32,21.809c-2.735,0-4.959,2.229-4.959,4.942c0,2.716,2.224,4.93,4.959,4.93c2.705,0,4.923-2.214,4.923-4.93
	C80.243,24.037,78.025,21.809,75.32,21.809"/>
<path class="st2" d="M106.735,37.988c-1.725,0-3.125,1.405-3.125,3.116c0,1.71,1.4,3.106,3.125,3.106
	c1.703,0,3.103-1.396,3.103-3.106C109.838,39.394,108.438,37.988,106.735,37.988"/>
<path class="st2" d="M97.363,42.729c-3.78,0-6.853,3.081-6.853,6.832s3.072,6.811,6.853,6.811c3.738,0,6.803-3.06,6.803-6.811
	S101.102,42.729,97.363,42.729"/>
<path class="st2" d="M64.884,46.771c-5.787,0-10.493,4.718-10.493,10.461c0,5.746,4.706,10.43,10.493,10.43
	c5.723,0,10.419-4.684,10.419-10.43C75.303,51.489,70.606,46.771,64.884,46.771"/>
<path class="st0" d="M228.69,57.704c-5.588,0-10.139-4.534-10.139-10.124c0-5.602,4.551-10.146,10.139-10.146
	c5.589,0,10.147,4.545,10.147,10.146C238.838,53.17,234.279,57.704,228.69,57.704 M228.691,32.456
	c-8.325,0-15.121,6.786-15.121,15.12c0,8.332,6.796,15.119,15.121,15.119c8.335,0,15.122-6.787,15.122-15.119
	C243.813,39.242,237.026,32.456,228.691,32.456"/>
<path class="st0" d="M186.068,66.313c-4.104,0-7.445-3.331-7.445-7.435c0-4.113,3.342-7.449,7.445-7.449
	c4.103,0,7.452,3.336,7.452,7.449C193.521,62.982,190.171,66.313,186.068,66.313 M186.069,47.772
	c-6.112,0-11.104,4.984-11.104,11.104c0,6.116,4.991,11.099,11.104,11.099c6.12,0,11.104-4.982,11.104-11.099
	C197.173,52.757,192.189,47.772,186.069,47.772"/>
<path class="st0" d="M158.945,36.114c-2.391,0-4.335-1.939-4.335-4.328c0-2.394,1.944-4.337,4.335-4.337
	c2.388,0,4.337,1.943,4.337,4.337C163.282,34.175,161.333,36.114,158.945,36.114 M158.946,25.321c-3.561,0-6.466,2.9-6.466,6.464
	c0,3.561,2.905,6.461,6.466,6.461c3.562,0,6.462-2.9,6.462-6.461C165.408,28.222,162.508,25.321,158.946,25.321"/>
<path class="st0" d="M144.882,62.013c-1.895,0-3.438-1.537-3.438-3.433c0-1.898,1.544-3.44,3.438-3.44
	c1.896,0,3.441,1.542,3.441,3.44C148.323,60.476,146.778,62.013,144.882,62.013 M144.882,53.452c-2.822,0-5.126,2.301-5.126,5.126
	s2.304,5.127,5.126,5.127c2.826,0,5.128-2.302,5.128-5.127S147.708,53.452,144.882,53.452"/>
<path class="st1" d="M201.518,31.895c-4.629,0-8.412,3.772-8.412,8.421c0,4.632,3.783,8.398,8.412,8.398
	c4.643,0,8.425-3.767,8.425-8.398C209.942,35.667,206.16,31.895,201.518,31.895"/>
<path class="st1" d="M161.623,42.887c-4.627,0-8.408,3.771-8.408,8.419c0,4.633,3.781,8.401,8.408,8.401
	c4.646,0,8.426-3.769,8.426-8.401C170.049,46.658,166.269,42.887,161.623,42.887"/>
<path class="st2" d="M205.774,51.799c-2.705,0-4.924,2.214-4.924,4.929s2.219,4.944,4.924,4.944c2.735,0,4.958-2.229,4.958-4.944
	S208.51,51.799,205.774,51.799"/>
<path class="st2" d="M168.495,60.104c-2.704,0-4.924,2.214-4.924,4.929c0,2.714,2.22,4.942,4.924,4.942
	c2.734,0,4.959-2.229,4.959-4.942C173.454,62.318,171.229,60.104,168.495,60.104"/>
<path class="st2" d="M137.08,47.574c-1.704,0-3.104,1.396-3.104,3.106s1.399,3.117,3.104,3.117c1.724,0,3.125-1.406,3.125-3.117
	S138.804,47.574,137.08,47.574"/>
<path class="st2" d="M146.451,35.414c-3.737,0-6.803,3.059-6.803,6.81c0,3.752,3.065,6.833,6.803,6.833
	c3.779,0,6.854-3.081,6.854-6.833C153.305,38.473,150.23,35.414,146.451,35.414"/>
<path class="st2" d="M178.931,24.122c-5.724,0-10.419,4.684-10.419,10.43c0,5.745,4.695,10.462,10.419,10.462
	c5.788,0,10.494-4.717,10.494-10.462C189.425,28.806,184.719,24.122,178.931,24.122"/>
</svg>
