<?xml version="1.0" encoding="UTF-8" standalone="no"?>
<!-- Generator: Adobe Illustrator 15.1.0, SVG Export Plug-In  -->
<!DOCTYPE svg  PUBLIC '-//W3C//DTD SVG 1.1//EN'  'http://www.w3.org/Graphics/SVG/1.1/DTD/svg11.dtd' [
	<!ENTITY ns_flows "http://ns.adobe.com/Flows/1.0/">
]>
<svg style="enable-background:new 0 0 88 67" xmlns="http://www.w3.org/2000/svg" xml:space="preserve" height="133px" width="175px" version="1.1" y="0px" x="0px" xmlns:xlink="http://www.w3.org/1999/xlink" viewBox="0 0 88 67">
<style type="text/css">
<![CDATA[
	.st0{fill:#F58323;}
	.st1{fill:#F8AC6B;}
	.st2{fill:#919195;}
	.st3{fill:#FBCBA3;}
	.st4{font-size:12.7453;}
	.st5{letter-spacing:1;}
	.st6{font-family:'FuturaStd-Bold';}
	.st7{font-size:13.9039;}
]]>
</style>
	<path class="st0" d="m8.382 43.304c-0.556-0.751-1.46-1.154-2.391-1.154-1.668 0-2.794 1.279-2.794 2.905 0 1.654 1.14 2.85 2.835 2.85 0.89 0 1.779-0.431 2.35-1.112v3.267c-0.904 0.278-1.557 0.487-2.405 0.487-1.46 0-2.85-0.557-3.934-1.543-1.154-1.043-1.682-2.405-1.682-3.962 0-1.432 0.542-2.808 1.543-3.837 1.029-1.057 2.516-1.695 3.99-1.695 0.875 0 1.682 0.194 2.488 0.527v3.267z"/>
	<path class="st0" d="m22.799 44.832c0 3.393-2.433 5.783-5.796 5.783-3.364 0-5.797-2.391-5.797-5.783 0-3.169 2.78-5.394 5.797-5.394 3.016 0 5.796 2.225 5.796 5.394zm-8.757 0.015c0 1.807 1.334 3.127 2.961 3.127s2.96-1.32 2.96-3.127c0-1.446-1.334-2.767-2.96-2.767s-2.961 1.32-2.961 2.767z"/>
	<path class="st0" d="m25.458 39.786h2.725l4.99 6.408h0.027v-6.408h2.725v10.481h-2.725l-4.99-6.422h-0.028v6.422h-2.725v-10.481z"/>
	<path class="st0" d="m46.312 43.304c-0.556-0.751-1.459-1.154-2.391-1.154-1.668 0-2.794 1.279-2.794 2.905 0 1.654 1.14 2.85 2.835 2.85 0.89 0 1.779-0.431 2.349-1.112v3.267c-0.903 0.278-1.557 0.487-2.404 0.487-1.46 0-2.85-0.557-3.934-1.543-1.154-1.043-1.682-2.405-1.682-3.962 0-1.432 0.542-2.808 1.543-3.837 1.029-1.057 2.516-1.695 3.99-1.695 0.875 0 1.681 0.194 2.488 0.527v3.267z"/>
	<path class="st0" d="m58.38 50.268h-3.391l-2.572-4.031h-0.027v4.031h-2.725v-10.482h4.072c2.072 0 3.643 0.987 3.643 3.226 0 1.445-0.807 2.696-2.295 2.961l3.295 4.295zm-5.99-5.783h0.264c0.889 0 1.891-0.167 1.891-1.308 0-1.14-1.002-1.307-1.891-1.307h-0.264v2.615z"/>
	<path class="st0" d="m63.513 42.094v1.752h3.072v2.308h-3.072v1.807h3.238v2.308h-5.963v-10.483h5.963v2.308h-3.238z"/>
	<path class="st0" d="m74.272 50.268h-2.725v-8.174h-2.252v-2.308h7.229v2.308h-2.252v8.174z"/>
	<path class="st0" d="m81.907 42.094v1.752h3.072v2.308h-3.072v1.807h3.238v2.308h-5.963v-10.483h5.963v2.308h-3.238z"/>
	<path class="st2" d="m17.516 56.699c-0.459-0.383-1.045-0.638-1.656-0.638-0.459 0-1.07 0.268-1.07 0.803 0 0.561 0.675 0.777 1.108 0.918l0.637 0.19c1.337 0.396 2.37 1.07 2.37 2.625 0 0.956-0.229 1.937-0.994 2.587-0.752 0.637-1.758 0.904-2.727 0.904-1.21 0-2.396-0.408-3.376-1.096l1.07-2.014c0.624 0.549 1.363 0.994 2.217 0.994 0.586 0 1.21-0.293 1.21-0.968 0-0.701-0.981-0.943-1.516-1.096-1.567-0.446-2.599-0.854-2.599-2.714 0-1.95 1.389-3.224 3.313-3.224 0.968 0 2.153 0.306 3.007 0.79l-0.994 1.939z"/>
	<path class="st2" d="m28.489 57.451c-0.51-0.688-1.338-1.058-2.192-1.058-1.529 0-2.561 1.172-2.561 2.662 0 1.517 1.044 2.612 2.599 2.612 0.815 0 1.631-0.395 2.153-1.02v2.994c-0.829 0.255-1.427 0.446-2.205 0.446-1.338 0-2.612-0.51-3.605-1.414-1.058-0.956-1.542-2.204-1.542-3.632 0-1.312 0.497-2.573 1.415-3.517 0.943-0.968 2.306-1.554 3.657-1.554 0.803 0 1.542 0.178 2.281 0.483v2.998z"/>
	<path class="st2" d="m34.06 63.834h-2.497v-9.606h2.497v9.606z"/>
	<path class="st2" d="m39.718 56.342v1.605h2.816v2.115h-2.816v1.656h2.969v2.115h-5.466v-9.606h5.466v2.114h-2.969z"/>
	<path class="st2" d="m45.761 54.228h2.496l4.574 5.873h0.025v-5.873h2.498v9.606h-2.498l-4.574-5.887h-0.025v5.887h-2.496v-9.606z"/>
	<path class="st2" d="m65.386 57.451c-0.51-0.688-1.338-1.058-2.191-1.058-1.529 0-2.561 1.172-2.561 2.662 0 1.517 1.045 2.612 2.598 2.612 0.816 0 1.631-0.395 2.154-1.02v2.994c-0.828 0.255-1.428 0.446-2.205 0.446-1.338 0-2.611-0.51-3.605-1.414-1.057-0.956-1.541-2.204-1.541-3.632 0-1.312 0.496-2.573 1.414-3.517 0.943-0.968 2.307-1.554 3.656-1.554 0.803 0 1.543 0.178 2.281 0.483v2.998z"/>
	<path class="st2" d="m70.956 56.342v1.605h2.816v2.115h-2.816v1.656h2.969v2.115h-5.465v-9.606h5.465v2.114h-2.969z"/>
<path class="st2" d="m48.806 8.498h-10.005c-0.518 0-0.939-0.421-0.939-0.94 0-0.518 0.422-0.939 0.939-0.939h10.004c0.52 0 0.939 0.422 0.939 0.939 0.001 0.519-0.419 0.94-0.938 0.94z"/>
<path class="st2" d="m43.803 35.431c-5.549 0-10.064-4.515-10.064-10.066 0-3.847 2.179-7.317 5.605-9.009v-7.664c0-0.519 0.42-0.939 0.939-0.939s0.941 0.421 0.941 0.939v8.268c0 0.377-0.229 0.718-0.578 0.866-3.057 1.281-5.031 4.24-5.031 7.538 0 4.513 3.674 8.187 8.188 8.187s8.186-3.674 8.186-8.187c0-3.298-1.975-6.257-5.029-7.538-0.348-0.146-0.576-0.489-0.576-0.866v-8.268c0-0.519 0.42-0.939 0.941-0.939 0.518 0 0.939 0.421 0.939 0.939v7.663c3.426 1.691 5.605 5.162 5.605 9.009 0.001 5.552-4.515 10.067-10.066 10.067z"/>
<path class="st2" d="m44.976 14.111c-0.26 0-0.471-0.211-0.471-0.471v-5.731c0-0.26 0.211-0.47 0.471-0.47s0.469 0.21 0.469 0.47v5.731c-0.001 0.26-0.21 0.471-0.469 0.471z"/>
<path class="st0" d="m47.062 5.523c-1.41 0-2.559-1.147-2.559-2.559 0-1.409 1.149-2.558 2.559-2.558 1.408 0 2.557 1.148 2.557 2.558-0.001 1.412-1.149 2.559-2.557 2.559zm0-3.75c-0.658 0-1.195 0.534-1.195 1.191 0 0.66 0.537 1.194 1.195 1.194 0.656 0 1.193-0.534 1.193-1.194 0-0.656-0.537-1.191-1.193-1.191z"/>
<path class="st1" d="m51.946 2.678c-0.785 0-1.424 0.638-1.424 1.421 0 0.787 0.639 1.425 1.424 1.425 0.783 0 1.424-0.638 1.424-1.425 0-0.784-0.641-1.421-1.424-1.421z"/>
<path class="st3" d="m51.11 0c-0.463 0-0.838 0.377-0.838 0.837 0 0.459 0.375 0.833 0.838 0.833 0.457 0 0.832-0.374 0.832-0.833 0-0.46-0.375-0.837-0.832-0.837z"/>
<path class="st2" d="m42.02 16.683c-0.15 0.031-0.292 0.084-0.439 0.119l-0.013-0.027s-0.352-0.044-0.352-0.514c0-0.469-0.559 0.705-0.559 0.705l-0.028 0.123c-0.295 0.111-0.593 0.225-0.875 0.366-3.025 1.514-4.902 4.555-4.902 7.934 0 0.208 0.168 0.377 0.376 0.377 0.205 0 0.376-0.169 0.376-0.377 0-3.093 1.72-5.875 4.485-7.261 0.655-0.328 1.353-0.564 2.073-0.705 0.205-0.04 0.335-0.238 0.296-0.441-0.04-0.203-0.239-0.334-0.438-0.299z"/>
<path class="st2" d="m45.591 16.683c0.15 0.031 0.293 0.084 0.438 0.119l0.016-0.027s0.352-0.044 0.352-0.514c0-0.469 0.557 0.705 0.557 0.705l0.029 0.123c0.297 0.111 0.594 0.225 0.877 0.366 3.023 1.514 4.9 4.555 4.9 7.934 0 0.208-0.168 0.377-0.377 0.377-0.207 0-0.377-0.169-0.377-0.377 0-3.093-1.715-5.875-4.482-7.261-0.656-0.328-1.354-0.564-2.074-0.705-0.203-0.04-0.336-0.238-0.297-0.441 0.037-0.203 0.237-0.334 0.438-0.299z"/>
<path class="st2" d="m46.634 9.759l-0.25-0.749s0-0.527-0.295-0.544c-0.291-0.013-0.352 0.017-0.352 0.017s-0.264 0-0.307 0.527c-0.045 0.528-0.484 0.588-0.484 0.484 0-0.103 0.191-1.513 0.191-1.513l0.807-0.161 0.998 1.146-0.308 0.793z"/>
<path class="st0" d="m50.13 22.906c-1.285 0-1.311-1.038-1.582-1.038-0.273 0-0.297 1.038-1.582 1.038s-1.309-1.038-1.582-1.038c-0.271 0-0.295 1.038-1.582 1.038-1.285 0-1.309-1.038-1.581-1.038s-0.297 1.038-1.582 1.038-1.31-1.038-1.581-1.038c-0.272 0-0.297 1.038-1.582 1.038-0.288 0.658-0.536 1.481-0.536 2.411 0 3.792 3.074 6.865 6.863 6.865 3.792 0 6.864-3.073 6.864-6.865 0-0.929-0.246-1.753-0.533-2.411"/>
</svg>
